# xmcd
#
# Track frame offsets:
#       150
#       7748
#       23433
#       31271
#       35085
#       44075
#       47819
#       55235
#       72257
#       79132
#       90781
#
# Disc length: 1498 seconds
#
# Revision: 0
# Processed by: cddbd v1.5.1PL2 Copyright (c) Steve Scherf et al.
# Submitted via: WaveLab 4.01
#
DISCID=7d05d80b
DTITLE=diverse - Von Angesicht zu Angesicht
DYEAR=2006
DGENRE=NGL
TTITLE0=Wer macht uns Hoffnung
TTITLE1=Der Müden Kraft
TTITLE2=Musik zur Bildtafel 1
TTITLE3=Sieh uns an
TTITLE4=Musik zur Bildtafel 2
TTITLE5=Sieh uns an
TTITLE6=Musik zur Bildtafel 3
TTITLE7=Heute wie damals
TTITLE8=Musik zur Bildtafel 4
TTITLE9=Lassmich das Morgenrot sehn
TTITLE10=Und ein neuer Morgen
EXTD=
EXTT0=
EXTT1=
EXTT2=
EXTT3=
EXTT4=
EXTT5=
EXTT6=
EXTT7=
EXTT8=
EXTT9=
EXTT10=
PLAYORDER=
